<?xml version="1.0" encoding="UTF-8" standalone="no"?>
<!-- Generator: Adobe Illustrator 15.0.0, SVG Export Plug-In . SVG Version: 6.00 Build 0)  -->

<svg
   version="1.1"
   id="Ebene_1"
   x="0px"
   y="0px"
   width="130"
   height="130"
   viewBox="0 0 130 130.00001"
   xml:space="preserve"
   sodipodi:docname="trans-westbahn.svg"
   inkscape:version="1.4.2 (ebf0e940, 2025-05-08)"
   xmlns:inkscape="http://www.inkscape.org/namespaces/inkscape"
   xmlns:sodipodi="http://sodipodi.sourceforge.net/DTD/sodipodi-0.dtd"
   xmlns="http://www.w3.org/2000/svg"
   xmlns:svg="http://www.w3.org/2000/svg"><defs
   id="defs14" /><sodipodi:namedview
   id="namedview14"
   pagecolor="#ffffff"
   bordercolor="#000000"
   borderopacity="0.25"
   inkscape:showpageshadow="2"
   inkscape:pageopacity="0.0"
   inkscape:pagecheckerboard="0"
   inkscape:deskcolor="#d1d1d1"
   inkscape:zoom="4.1508677"
   inkscape:cx="89.49936"
   inkscape:cy="64.805728"
   inkscape:window-width="2048"
   inkscape:window-height="1099"
   inkscape:window-x="0"
   inkscape:window-y="25"
   inkscape:window-maximized="1"
   inkscape:current-layer="Ebene_1" />

<g
   id="g14"
   transform="translate(-10.594,25.937)">
	<g
   id="g12">
		<g
   id="g11">
			<polygon
   style="fill:#ffb0c0"
   points="67.48,28.543 52.085,51.227 55.658,67.99 48.532,67.99 56.06,86.158 95.124,86.158 90.846,75.841 63.889,75.841 58.307,48.658 80.092,15.011 80.09,15.011 49.232,15.011 42.096,28.543 "
   id="polygon9" />
			<polygon
   style="fill:#5bcefa"
   points="88.3,15.011 75.594,39.063 90.845,75.841 111.308,75.841 105.725,51.429 137.062,0.258 89.644,0.258 80.092,15.011 "
   id="polygon10" />
			<polygon
   style="fill:#5bcefa"
   points="32.833,28.543 17.577,51.29 21.009,67.99 48.53,67.99 36.548,39.063 42.096,28.543 "
   id="polygon11" />
		</g>
		<polygon
   style="fill:#639acc"
   points="42.097,28.543 36.547,39.063 48.532,67.99 55.658,67.99 52.085,51.227 67.481,28.543 "
   id="polygon12" />
	</g>
	<g
   id="g13">
		<polygon
   style="fill:#ec97af"
   points="80.092,15.011 58.309,48.658 63.889,75.841 90.845,75.841 75.594,39.063 88.3,15.011 "
   id="polygon13" />
	</g>
</g>
</svg>
